<?xml version="1.0" encoding="utf-8"?>
<!-- Generator: Adobe Illustrator 28.3.0, SVG Export Plug-In . SVG Version: 6.00 Build 0)  -->
<svg version="1.1" id="Layer_1" xmlns="http://www.w3.org/2000/svg" xmlns:xlink="http://www.w3.org/1999/xlink" x="0px" y="0px"
	 viewBox="0 0 500 500" style="enable-background:new 0 0 500 500;" xml:space="preserve">
<style type="text/css">
	.st0{fill:#ED4346;}
</style>
<path class="st0" d="M246.9,96.7h20c23,0,46,0,69,0c13.1,0,26.3,0,39.4-0.1c10.8-0.1,21.6-0.1,32.4-0.3c4.5-0.1,9-0.2,13.5-0.6
	c4.3-0.4,8.6,0.1,12.8,1.4c4.1,1.3,6.9,3.9,7.7,8.3c0.3,1.4,0.2,2.8,0,4.2c-0.5,2.8-1.4,5.5-2.8,8c-3.3,6-7,11.7-11.6,16.8
	c-6.9,7.5-15.3,12.1-25.2,14.3c-4.6,1-9.3,1.5-14,1.5c-24.7,0-49.3,0-74,0c-52.1,0-104.1,0-156.2,0c-22.7,0-45.5,0-68.2,0
	c-0.8,0-1.6,0-2.4-0.1c-2.5-0.4-4.4-1.8-5.7-4c-2.7-4.7-5.5-9.4-8.2-14c-3-5.1-5.9-10.3-9-15.4c-1.5-2.5-2.4-5.2-2.5-8
	c-0.3-4.7,1.8-8.7,6.3-10.8c1.7-0.8,3.4-1.2,5.3-1.4c4-0.3,7.9-0.6,11.9-0.6c18,0,36.1,0,54.1,0c7.8,0,15.6,0,23.3,0.1
	c12.4,0.1,24.8,0.1,37.1,0.2c8.9,0.1,17.8,0.2,26.8,0.3c5.7,0.1,11.4,0.2,17.1,0.3c1,0,2,0,3,0C246.9,96.6,246.9,96.6,246.9,96.7
	L246.9,96.7z"/>
<path class="st0" d="M239.8,255.4c-26.5,0-53,0-79.5,0c-2.8,0-5.7,0-8.5,0.1c-3,0.1-5.3-0.6-6.9-4.3c-1.5-3.4-3.5-6.4-5.4-9.5
	c-12.7-20.8-25.1-41.8-37.3-62.8c-3.3-5.7-6.7-11.3-10.4-16.8c-0.4-0.6-1.2-1.4-0.8-2c0.4-0.7,1.4-0.4,2.1-0.4c3.6,0,7.1,0,10.7,0
	c23.8,0,47.5-0.1,71.2-0.1c1,0,1.9,0.1,2.9,0.1c1.4,0.1,1.9,0.7,2,2.1c0.1,1.1,0,2.3,0.1,3.4c0.2,2.2,1,4.2,2.1,6.1
	c2.5,4.2,5,8.5,7.6,12.7c2.5,4.2,5.8,7.8,9.8,10.6c5,3.4,10.2,6.5,15.8,8.9c4.2,1.8,8.6,2.7,13.1,3.2c2.6,0.3,5.2,0.3,7.8,0.3
	c40,0,80,0,120.1,0c3,0,5.9,0.2,8.9,0.8c1.2,0.2,2.4,0.6,3.5,1.1c5.4,2.5,7.8,7.5,6.3,13.3c-1,3.6-2.6,6.8-4.7,9.8
	c-7.4,10.3-16.9,17.6-29.1,21.1c-5.9,1.7-11.9,2.2-17.9,2.2C295.3,255.3,267.6,255.3,239.8,255.4L239.8,255.4L239.8,255.4z"/>
<path class="st0" d="M198.3,264.3c13.5,0,27.1,0,40.6,0c0.7,0,1.4,0,2.1,0.1c1.5,0.2,1.9,0.7,1.9,2.2c0,1.1-0.1,2.3,0.1,3.5
	c0.3,2.4,1.1,4.7,2.2,6.8c2.4,4.3,4.8,8.7,7.6,12.7c8.4,11.7,19.8,18.9,34,21.4c3.6,0.6,7.1,0.7,10.7,0.9c2.4,0.1,4.8,0.5,7,1.4
	c3.5,1.4,6.1,3.6,7.1,7.4c0.7,2.4,0.4,4.8-0.3,7.1c-1,3.1-2.3,6.1-4,8.9c-4.8,8.1-9.7,16.2-14.5,24.3c-8.7,14.5-17.4,29-26.1,43.6
	c-2.2,3.6-5,6.8-7.9,9.8c-1.3,1.3-2.9,2-4.8,2c-1.7,0.1-3.4-0.1-5.1-0.5c-2.5-0.6-4.5-2-6.3-3.9c-3.1-3.4-5.8-7.1-8.2-11.1
	c-14.7-24.7-29.4-49.3-44.2-74c-10-16.8-20.1-33.6-30.1-50.4c-2-3.3-3.6-6.9-5.5-10.3c-0.1-0.2-0.2-0.4-0.2-0.5
	c-0.2-0.8,0-1.2,0.8-1.3c0.4-0.1,0.8-0.1,1.1-0.1C170.5,264.3,184.4,264.3,198.3,264.3L198.3,264.3z"/>
</svg>
